<?xml version="1.0" encoding="utf-8"?>
<!-- Generator: Adobe Illustrator 19.2.1, SVG Export Plug-In . SVG Version: 6.00 Build 0)  -->
<svg version="1.1" id="Layer_1" xmlns="http://www.w3.org/2000/svg" xmlns:xlink="http://www.w3.org/1999/xlink" x="0px" y="0px"
	 viewBox="0 0 745.1 359" style="enable-background:new 0 0 745.1 359;" xml:space="preserve">
<style type="text/css">
	.st0{fill:#FFFFFF;}
	.st1{fill:#CB3837;}
	.st2{font-family:'Gubblebum-BlacknBlocky';}
	.st3{font-size:332.254px;}
	.st4{font-size:200px;}
</style>
<polygon class="st0" points="34,126.6 34,0 108.9,0 108.9,16 228.6,16 228.6,0 370,0 370,16 466,16 466,126.6 "/>
<path class="st1" d="M0,157.6v172.7h143.9V359H259v-28.8h259V157.6"/>
<path class="st0" d="M29.3,186.3v115.1h57.6v-86.3h28.8v86.3h28.8V186.3h28.8v143.9h57.6V215.1h28.8v57.6h-28.8v28.8h57.6V186.3
	h28.8v115.1h57.6v-86.3h28.8v86.3h28.8v-86.3h28.8v86.3h28.8V186.3"/>
<rect x="518" y="131.9" class="st1" width="227.1" height="227.1"/>
<text transform="matrix(1 0 0 1 546 330.219)" class="st0 st2 st3">5</text>
<rect x="144.9" y="171" class="st1" width="27.8" height="43"/>
<rect x="288.7" y="171" class="st1" width="27.9" height="43"/>
<text transform="matrix(1 0 0 1 49.5012 115.5522)" class="st1 st2 st4">hallo</text>
</svg>
